# xmcd
#
# Track frame offsets: 
#        150
#        19675
#        36496
#        55915
#        69910
#        86359
#        104222
#        120325
#        133867
#        150218
#        168347
#        187736
#        196759
#
# Disc length: 2827 seconds
#
# Revision: 4
# Processed by: cddbd v1.5.2PL0 Copyright (c) Steve Scherf et al.
# Submitted via: ExactAudioCopy v1.0b3
#
DISCID=9f0b090d
DTITLE=Nickelback - All The Right Reasons [Japanese Release]
DYEAR=2005
DGENRE=Hard Rock
TTITLE0=Follow You Home
TTITLE1=Fight For All The Wrong Reasons
TTITLE2=Photograph
TTITLE3=Animals
TTITLE4=Savin' Me
TTITLE5=Far Away
TTITLE6=Next Contestant
TTITLE7=Side Of A Bullet
TTITLE8=If Everyone Cared
TTITLE9=Someone That You're With
TTITLE10=Rockstar
TTITLE11=We Will Rock You
TTITLE12=Someday (Live - Acoustic) (Bonus Track)
EXTD=YEAR: 2005
EXTT0=
EXTT1=
EXTT2=
EXTT3=
EXTT4=
EXTT5=
EXTT6=
EXTT7=
EXTT8=
EXTT9=
EXTT10=
EXTT11=
EXTT12=
PLAYORDER=
